<svg class="wp-image-24651 replaced-svg svg-replaced-0" id="svg-replaced-0" viewBox="0 0 281.59 72.22" xmlns="http://www.w3.org/2000/svg"><path fill="#1d1d1b" d="M100.44,70.86a2.82,2.82,0,0,0,1.27-.25,4.31,4.31,0,0,0,1.09-.77l.9.92a4.11,4.11,0,0,1-3.2,1.46A4.17,4.17,0,0,1,97.39,71a4.36,4.36,0,0,1,0-6.14,4.52,4.52,0,0,1,6.41.19l-.89,1a4.45,4.45,0,0,0-1.14-.79,3,3,0,0,0-1.23-.23,2.9,2.9,0,0,0-2.12.82,2.74,2.74,0,0,0-.87,2.08A2.92,2.92,0,0,0,98.44,70,2.8,2.8,0,0,0,100.44,70.86Z"></path><path fill="#1d1d1b" d="M112.19,71a4.32,4.32,0,0,1-3.11,1.23A4.2,4.2,0,0,1,106,71a4,4,0,0,1-1.28-3.06,3.93,3.93,0,0,1,1.28-3,4.17,4.17,0,0,1,3.1-1.24,4.29,4.29,0,0,1,3.11,1.24,4.11,4.11,0,0,1,1.24,3A4.16,4.16,0,0,1,112.19,71Zm-1-5.19a2.89,2.89,0,0,0-4.17,0A3.06,3.06,0,0,0,107,70a2.87,2.87,0,0,0,4.17,0,3.11,3.11,0,0,0,0-4.25Z"></path><path fill="#1d1d1b" d="M121.42,63.82h1.4v8.3h-1.51l-4.72-6.05v6.05h-1.37v-8.3h1.37L121.42,70Z"></path><path fill="#1d1d1b" d="M134.61,63.82H136v8.3H134.5l-4.71-6.05v6.05h-1.4v-8.3h1.4L134.61,70Z"></path><path fill="#1d1d1b" d="M145.27,71a4.32,4.32,0,0,1-3.14,1.23A4.24,4.24,0,0,1,139,71a4.1,4.1,0,0,1-1.26-3.06,4.05,4.05,0,0,1,1.26-3,4.21,4.21,0,0,1,3.09-1.24,4.29,4.29,0,0,1,3.14,1.24,4,4,0,0,1,1.25,3A4.09,4.09,0,0,1,145.27,71Zm-1.05-5.19a2.78,2.78,0,0,0-2.09-.89,2.72,2.72,0,0,0-2,.89,3.06,3.06,0,0,0,0,4.25,2.66,2.66,0,0,0,2,.9,2.72,2.72,0,0,0,2.09-.9,3,3,0,0,0,0-4.25Z"></path><path fill="#1d1d1b" d="M148.27,63.82h1.42v8.3h-1.42Z"></path><path fill="#1d1d1b" d="M161.07,63.82v1.32h-4.44v2.2h4v1.25h-4v2.22h4.59v1.31h-6v-8.3Zm-2-.68h-1.21L156.41,62l1.42-.58Z"></path><path fill="#1d1d1b" d="M168.76,64.9a1.84,1.84,0,0,0-1,.27.82.82,0,0,0-.38.75.87.87,0,0,0,.38.77,5.38,5.38,0,0,0,1.67.58,4.58,4.58,0,0,1,1.92.86,2,2,0,0,1,.66,1.65,2.16,2.16,0,0,1-.83,1.76,3.27,3.27,0,0,1-2.16.68,5.13,5.13,0,0,1-3.45-1.33l.9-1.06a3.94,3.94,0,0,0,2.6,1.08,1.65,1.65,0,0,0,1.06-.29.87.87,0,0,0,.43-.78.84.84,0,0,0-.39-.73,3.67,3.67,0,0,0-1.29-.49,10.19,10.19,0,0,1-1.38-.41,3.22,3.22,0,0,1-.84-.47,2.31,2.31,0,0,1,.1-3.48,3.29,3.29,0,0,1,2.07-.63,5.13,5.13,0,0,1,1.59.25,4.34,4.34,0,0,1,1.32.74L171,65.69a2.84,2.84,0,0,0-1-.57A4,4,0,0,0,168.76,64.9Z"></path><path fill="#1d1d1b" d="M179.58,63.82v1.32h-4.45v2.2h4v1.25h-4v2.22h4.58v1.31h-6v-8.3Z"></path><path fill="#1d1d1b" d="M182.89,72.12h-1.38v-8.3h2.17L186.19,69l2.51-5.22h2.17v8.3h-1.4V65.64l-2.89,5.77h-.79l-2.9-5.77Z"></path><path fill="#1d1d1b" d="M198.78,64.55a2.76,2.76,0,0,1,.88,2.23,2.6,2.6,0,0,1-.92,2.2,4.12,4.12,0,0,1-2.71.72h-1.46v2.42h-1.4v-8.3H196A4.4,4.4,0,0,1,198.78,64.55Zm-1,3.43a1.86,1.86,0,0,0,.39-1.32,1.36,1.36,0,0,0-.51-1.21,3.08,3.08,0,0,0-1.69-.36h-1.41v3.33h1.63A2.19,2.19,0,0,0,197.79,68Z"></path><path fill="#1d1d1b" d="M201.27,72.12v-8.3h1.42v7h3.78v1.32Z"></path><path fill="#1d1d1b" d="M208,63.82h1.38v8.3H208Z"></path><path fill="#1d1d1b" d="M215.5,70.86a2.8,2.8,0,0,0,1.26-.25,4.27,4.27,0,0,0,1.08-.77l.91.92a4.13,4.13,0,0,1-3.2,1.46A4.32,4.32,0,0,1,212.41,71,4.13,4.13,0,0,1,211.18,68a4.07,4.07,0,0,1,1.28-3.09,4.31,4.31,0,0,1,3.17-1.24,4.14,4.14,0,0,1,3.23,1.43L218,66a3.7,3.7,0,0,0-1.13-.79,3,3,0,0,0-1.23-.23,2.91,2.91,0,0,0-2.11.82,2.72,2.72,0,0,0-.88,2.08,2.89,2.89,0,0,0,.87,2.11A2.81,2.81,0,0,0,215.5,70.86Z"></path><path fill="#1d1d1b" d="M226.27,63.82v1.32h-4.4v2.2h4v1.25h-4v2.22h4.56v1.31h-6v-8.3Z"></path><path fill="#e8e100" d="M270.82,51.36A6.27,6.27,0,0,1,269,46.77a6.19,6.19,0,0,1,1.82-4.56,6.28,6.28,0,0,1,8.94,0,6.24,6.24,0,0,1,1.83,4.56,6.32,6.32,0,0,1-1.83,4.59,6.33,6.33,0,0,1-8.94,0Z"></path><path fill="#e8e100" d="M48.18,52.9H0V40.6H48.18"></path><path fill="#1d1d1b" d="M80.67,54.07a15.93,15.93,0,0,1-4-.47,15.7,15.7,0,0,1-3.24-1.24,12.21,12.21,0,0,1-2.61-1.83,22.41,22.41,0,0,1-2.11-2.15v4.81H54.76V0H68.68l-.07,19a25.34,25.34,0,0,1,2.18-2.33,14.66,14.66,0,0,1,2.59-1.93,13.63,13.63,0,0,1,3.2-1.35,14.49,14.49,0,0,1,4-.51,16,16,0,0,1,6.66,1.42,16.78,16.78,0,0,1,5.58,4,19.42,19.42,0,0,1,3.82,6.42A24,24,0,0,1,98,33.3v.15a24.84,24.84,0,0,1-1.41,8.63,20.4,20.4,0,0,1-3.78,6.49,16.34,16.34,0,0,1-5.53,4.08A16,16,0,0,1,80.67,54.07Zm-4.3-11.59A7.52,7.52,0,0,0,82.1,40a9.08,9.08,0,0,0,2.32-6.48v-.15A9,9,0,0,0,82.1,27a7.56,7.56,0,0,0-5.73-2.48,7.4,7.4,0,0,0-3.12.66A7.49,7.49,0,0,0,70.71,27,9,9,0,0,0,69,29.8a9.91,9.91,0,0,0-.61,3.57v.15A10.25,10.25,0,0,0,69,37.13,8.9,8.9,0,0,0,70.71,40a7.62,7.62,0,0,0,2.54,1.86A7.39,7.39,0,0,0,76.37,42.48Z"></path><path fill="#1d1d1b" d="M100.94,0h13.92V53.19H100.94Z"></path><path fill="#1d1d1b" d="M138.67,54.14a23.52,23.52,0,0,1-8.52-1.49,20.18,20.18,0,0,1-6.67-4.15,18.56,18.56,0,0,1-4.37-6.45,21.66,21.66,0,0,1-1.57-8.39v-.14A22,22,0,0,1,119,25.47a19.92,19.92,0,0,1,4.11-6.56,19.41,19.41,0,0,1,6.31-4.41,19.66,19.66,0,0,1,8-1.6,20.75,20.75,0,0,1,8.86,1.75,17.4,17.4,0,0,1,6.19,4.7,19.64,19.64,0,0,1,3.64,6.84,28.05,28.05,0,0,1,1.21,8.28v1.38a14.28,14.28,0,0,1-.08,1.46H130.88a8.09,8.09,0,0,0,3,4.88,9.16,9.16,0,0,0,5.5,1.61,10.92,10.92,0,0,0,4.56-.95,14.7,14.7,0,0,0,4.19-3.06l7.64,6.34a21,21,0,0,1-7,5.82A21.51,21.51,0,0,1,138.67,54.14Zm5.68-23.9A8.76,8.76,0,0,0,142.17,25a6.11,6.11,0,0,0-4.66-1.93A5.8,5.8,0,0,0,133,25a10.14,10.14,0,0,0-2.33,5.21Z"></path><path fill="#1d1d1b" d="M170,33.3,157,13.77h14.94l5.82,9.69,5.83-9.69h14.65l-13,19.46,13.26,20H183.62L177.5,43.07l-6.2,10.12H156.73Z"></path><path fill="#1d1d1b" d="M203.07,13.77H217V53.19H203.07Z"></path><path fill="#1d1d1b" d="M223.52,13.77h13.91v5.54a24.41,24.41,0,0,1,2.09-2.4,13.24,13.24,0,0,1,2.59-2,14.3,14.3,0,0,1,3.17-1.43,12.71,12.71,0,0,1,3.81-.54q6.38,0,9.93,3.86t3.55,10.64V53.19H248.66V31.84a7.2,7.2,0,0,0-1.51-4.95,5.08,5.08,0,0,0-4-1.68,5.5,5.5,0,0,0-4.14,1.68,6.85,6.85,0,0,0-1.62,4.95V53.19H223.52Z"></path></svg>