<svg viewBox="0 0 112.41 27.48" xmlns="http://www.w3.org/2000/svg"><g fill="#7c7b7b"><path d="m16 10.93-8.21 16.07h-4.67l-2.33-16.07-.55-3h4.25c.27 2.47.55 5.08.82 7.55s.55 5.08.82 7.55c1.24-2.47 2.47-5.08 3.57-7.55s2.47-5.08 3.71-7.55h4z"></path><circle cx="22.89" cy="2.28" r="2.2"></circle><path d="m21 27 .69-3.84 2.71-15.25h-3.84l-.55 3-1.92 11a5.12 5.12 0 0 0 0 2.88 2.55 2.55 0 0 0 1 1.65 2.68 2.68 0 0 0 1.91.56z"></path><path d="m20.42 7.91-.69 3.84-2.73 15.25h3.84l.55-3 1.91-11a5.12 5.12 0 0 0 0-2.88 2.6 2.6 0 0 0 -2.75-2.2z"></path><path d="m37.17 7.91a21.25 21.25 0 0 0 -4.53.41 8.7 8.7 0 0 0 -3 1.24 5.36 5.36 0 0 0 -1.92 2.33 18.73 18.73 0 0 0 -1.1 3.84l-.62 3.16-1.37 8.24h3.84l1.37-8.24.27-1.78.27-1.51a5.21 5.21 0 0 1 .82-2.47 4.9 4.9 0 0 1 1.37-1.51 3.89 3.89 0 0 1 1.78-.55 23.27 23.27 0 0 1 3.16-.14z"></path><path d="m73.27 10.93a4.78 4.78 0 0 0 -1.51-1.78 6.13 6.13 0 0 0 -2.33-1.15 8.85 8.85 0 0 0 -2.75-.41 24.66 24.66 0 0 0 -3 .27 8 8 0 0 0 -3 1.1 7.09 7.09 0 0 0 -2.47 2.47 11 11 0 0 0 -1.51 4.26l-.55 2.75a11.72 11.72 0 0 0 0 4.39 7.71 7.71 0 0 0 1.65 2.75 6 6 0 0 0 2.57 1.42 11.43 11.43 0 0 0 3 .41 36.18 36.18 0 0 0 3.84-.27 19.23 19.23 0 0 0 3.29-.82l-.5-2.63c-.82.14-1.65.27-2.61.41a26.55 26.55 0 0 1 -3.57.14 6.89 6.89 0 0 1 -1.67-.24 3.55 3.55 0 0 1 -1.51-1 4.34 4.34 0 0 1 -1-1.78 4.62 4.62 0 0 1 0-2.75l.55-2.61.14-.41a12.77 12.77 0 0 1 .86-2.45 5.49 5.49 0 0 1 1.37-1.65 2.85 2.85 0 0 1 1.65-.69 7.25 7.25 0 0 1 1.79-.15 5.78 5.78 0 0 1 2.75.55 2.34 2.34 0 0 1 1.1 2.2 2.19 2.19 0 0 1 -.55 1.65 4.09 4.09 0 0 1 -1.51 1 7.78 7.78 0 0 1 -2.06.41h-2.2a6.68 6.68 0 0 1 -1.65-.14l-.41 2.61h.82a10.14 10.14 0 0 0 2.88 0 20.48 20.48 0 0 0 2.88-.27 8.28 8.28 0 0 0 2.61-.82 5.59 5.59 0 0 0 1.93-1.7 5 5 0 0 0 1-2.61 4.75 4.75 0 0 0 -.32-2.46z"></path><path d="m111.71 10.93a4.78 4.78 0 0 0 -1.51-1.78 6.13 6.13 0 0 0 -2.33-1.15 8.85 8.85 0 0 0 -2.75-.41 24.66 24.66 0 0 0 -3 .27 6.26 6.26 0 0 0 -2.9 1.14 7.09 7.09 0 0 0 -2.47 2.47 11 11 0 0 0 -1.51 4.26l-.55 2.75a11.72 11.72 0 0 0 0 4.39 7.71 7.71 0 0 0 1.65 2.75 6 6 0 0 0 2.6 1.38 11.43 11.43 0 0 0 3 .41 36.18 36.18 0 0 0 3.84-.27 19.23 19.23 0 0 0 3.29-.82l-.55-2.47c-.82.14-1.65.27-2.61.41a26.55 26.55 0 0 1 -3.57.14 6.89 6.89 0 0 1 -1.65-.27 3.55 3.55 0 0 1 -1.51-1 4.34 4.34 0 0 1 -1-1.78 4.62 4.62 0 0 1 0-2.75l.63-2.6.14-.41a12.76 12.76 0 0 1 .82-2.47 5.49 5.49 0 0 1 1.37-1.65 2.85 2.85 0 0 1 1.65-.69 7.25 7.25 0 0 1 1.78-.14 5.78 5.78 0 0 1 2.75.55c.69.14 1.1 1 1.1 2.06a2.19 2.19 0 0 1 -.55 1.65 4.09 4.09 0 0 1 -1.51 1 7.78 7.78 0 0 1 -2.06.41h-2.2a6.68 6.68 0 0 1 -1.65-.14l-.45 2.58h.82a10.14 10.14 0 0 0 2.88 0 20.48 20.48 0 0 0 2.88-.27 8.28 8.28 0 0 0 2.61-.82 5.59 5.59 0 0 0 1.97-1.66 5 5 0 0 0 1-2.61 3.67 3.67 0 0 0 -.45-2.46z"></path><path d="m55.29 10.93-8.24 16.07h-4.67l-2.33-16.07-.55-3h4.26c.27 2.47.55 5.08.82 7.55s.55 5.08.82 7.55c1.24-2.47 2.47-5.08 3.57-7.55s2.47-5.08 3.71-7.55h4z"></path></g><path d="m92.77 24.65a7 7 0 0 1 -1.77-.27 3.27 3.27 0 0 1 -1.51-.82 4.09 4.09 0 0 1 -1-1.51 2.68 2.68 0 0 1 -.14-1.1v-.82a15.29 15.29 0 0 1 .27-2.33l.27-1.24 2.92-16.48h-3.81l-2 10.57-1 6-.14.55v.27a3.8 3.8 0 0 0 -.14 1.24 12.42 12.42 0 0 0 .14 4.67 6 6 0 0 0 1.65 2.33 7.65 7.65 0 0 0 2.69 1.29 11.26 11.26 0 0 0 3 .27h1.24z" fill="#0091d3" opacity=".85"></path><path d="m83.29 24.65a7 7 0 0 1 -1.78-.27 3.27 3.27 0 0 1 -1.51-.82 4.09 4.09 0 0 1 -1-1.56 2.68 2.68 0 0 1 -.14-1.1v-.82a15.29 15.29 0 0 1 .27-2.33l.27-1.24 2.93-16.43h-3.84l-1.92 10.57-1 5.77-.14.55v.27a4.7 4.7 0 0 1 -.14 1.51 12.42 12.42 0 0 0 .14 4.67 6 6 0 0 0 1.65 2.33 7.65 7.65 0 0 0 2.64 1.25 11.26 11.26 0 0 0 3 .27h1.28z" fill="#bfd785"></path></svg>